<svg width="1440" height="1024" viewBox="0 0 1440 1024" fill="none" xmlns="http://www.w3.org/2000/svg">
<g clip-path="url(#clip0_602_16)">
<path d="M1385.6 378.343C1386.83 371.822 1396.17 371.822 1397.4 378.343L1522.23 1041.89C1522.93 1045.58 1520.09 1049 1516.33 1049H1266.67C1262.91 1049 1260.07 1045.58 1260.77 1041.89L1385.6 378.343Z" fill="#AE2012"/>
<path d="M1304.67 536.32C1306.14 530.186 1314.86 530.186 1316.33 536.32L1440.79 1055.1C1441.7 1058.87 1438.84 1062.5 1434.96 1062.5H1186.04C1182.16 1062.5 1179.3 1058.87 1180.21 1055.1L1304.67 536.32Z" fill="#AE2012"/>
<path d="M921.666 656.32C923.137 650.186 931.863 650.186 933.334 656.32L1057.79 1175.1C1058.7 1178.87 1055.84 1182.5 1051.96 1182.5H803.041C799.161 1182.5 796.301 1178.87 797.206 1175.1L921.666 656.32Z" fill="#AE2012"/>
<path d="M1050.43 472.881C1052.45 467.86 1059.55 467.86 1061.57 472.881L1273.53 1001.27C1275.11 1005.21 1272.21 1009.5 1267.96 1009.5H844.035C839.788 1009.5 836.885 1005.21 838.467 1001.27L1050.43 472.881Z" fill="#AE2012"/>
<path d="M797.452 439.472C799.492 434.518 806.508 434.518 808.548 439.472L1020.42 953.965C1022.05 957.914 1019.15 962.25 1014.88 962.25H591.123C586.852 962.25 583.949 957.914 585.575 953.965L797.452 439.472Z" fill="#AE2012"/>
<path d="M1127.21 428.105C1128.83 422.22 1137.17 422.22 1138.79 428.105L1311.05 1056.41C1312.1 1060.23 1309.23 1064 1305.27 1064H960.733C956.774 1064 953.9 1060.23 954.947 1056.41L1127.21 428.105Z" fill="#AE2012"/>
<path d="M561.666 521.32C563.137 515.186 571.863 515.186 573.334 521.32L697.794 1040.1C698.699 1043.87 695.839 1047.5 691.959 1047.5H443.041C439.161 1047.5 436.301 1043.87 437.206 1040.1L561.666 521.32Z" fill="#AE2012"/>
<path d="M710.666 502.32C712.137 496.186 720.863 496.186 722.334 502.32L846.794 1021.1C847.699 1024.87 844.839 1028.5 840.959 1028.5H592.041C588.161 1028.5 585.301 1024.87 586.206 1021.1L710.666 502.32Z" fill="#AE2012"/>
<path d="M199.666 625.32C201.137 619.186 209.863 619.186 211.334 625.32L335.794 1144.1C336.699 1147.87 333.839 1151.5 329.959 1151.5H81.0408C77.1609 1151.5 74.3012 1147.87 75.2064 1144.1L199.666 625.32Z" fill="#AE2012"/>
<path d="M454.701 495.822C456.281 489.877 464.719 489.877 466.299 495.822L613.948 1051.46C614.96 1055.27 612.089 1059 608.149 1059H312.851C308.911 1059 306.04 1055.27 307.052 1051.46L454.701 495.822Z" fill="#AE2012"/>
<path d="M84.6656 521.32C86.1371 515.186 94.8629 515.186 96.3344 521.32L220.794 1040.1C221.699 1043.87 218.839 1047.5 214.959 1047.5H-33.9592C-37.8391 1047.5 -40.6988 1043.87 -39.7936 1040.1L84.6656 521.32Z" fill="#AE2012"/>
<path d="M274.666 536.32C276.137 530.186 284.863 530.186 286.334 536.32L410.794 1055.1C411.699 1058.87 408.839 1062.5 404.959 1062.5H156.041C152.161 1062.5 149.301 1058.87 150.206 1055.1L274.666 536.32Z" fill="#AE2012"/>
<path d="M323.791 476.64C325.583 471.103 333.417 471.103 335.209 476.64L533.508 1089.4C534.762 1093.28 531.872 1097.25 527.799 1097.25H131.201C127.128 1097.25 124.238 1093.28 125.492 1089.4L323.791 476.64Z" fill="#AE2012"/>
<path d="M20.8537 647.707C22.7567 642.414 30.2433 642.414 32.1463 647.707L221.5 1174.47C222.906 1178.38 220.009 1182.5 215.854 1182.5H-162.854C-167.009 1182.5 -169.906 1178.38 -168.5 1174.47L20.8537 647.707Z" fill="#CA6702"/>
<path d="M138.171 572.906C139.659 566.801 148.341 566.801 149.829 572.906L276.424 1092.08C277.346 1095.86 274.484 1099.5 270.595 1099.5H17.4049C13.5158 1099.5 10.6544 1095.86 11.5757 1092.08L138.171 572.906Z" fill="#CA6702"/>
<path d="M333.854 672.707C335.757 667.414 343.243 667.414 345.146 672.707L534.5 1199.47C535.906 1203.38 533.009 1207.5 528.854 1207.5H150.146C145.991 1207.5 143.094 1203.38 144.5 1199.47L333.854 672.707Z" fill="#CA6702"/>
<path d="M500.854 564.707C502.757 559.414 510.243 559.414 512.146 564.707L701.5 1091.47C702.906 1095.38 700.009 1099.5 695.854 1099.5H317.146C312.991 1099.5 310.094 1095.38 311.5 1091.47L500.854 564.707Z" fill="#CA6702"/>
<path d="M637.854 647.707C639.757 642.414 647.243 642.414 649.146 647.707L838.5 1174.47C839.906 1178.38 837.009 1182.5 832.854 1182.5H454.146C449.991 1182.5 447.094 1178.38 448.5 1174.47L637.854 647.707Z" fill="#CA6702"/>
<path d="M811.854 564.707C813.757 559.414 821.243 559.414 823.146 564.707L1012.5 1091.47C1013.91 1095.38 1011.01 1099.5 1006.85 1099.5H628.146C623.991 1099.5 621.094 1095.38 622.5 1091.47L811.854 564.707Z" fill="#CA6702"/>
<path d="M880.731 652.206C882.388 646.403 890.612 646.403 892.269 652.206L1041.5 1174.85C1042.59 1178.69 1039.72 1182.5 1035.73 1182.5H737.269C733.284 1182.5 730.406 1178.69 731.5 1174.85L880.731 652.206Z" fill="#CA6702"/>
<path d="M1057.19 571.814C1058.72 565.79 1067.28 565.79 1068.81 571.814L1201.39 1092.02C1202.36 1095.81 1199.49 1099.5 1195.58 1099.5H930.425C926.51 1099.5 923.644 1095.81 924.611 1092.02L1057.19 571.814Z" fill="#CA6702"/>
<path d="M1189.85 564.707C1191.76 559.414 1199.24 559.414 1201.15 564.707L1390.5 1091.47C1391.91 1095.38 1389.01 1099.5 1384.85 1099.5H1006.15C1001.99 1099.5 999.094 1095.38 1000.5 1091.47L1189.85 564.707Z" fill="#CA6702"/>
<path d="M1380.85 616.707C1382.76 611.414 1390.24 611.414 1392.15 616.707L1581.5 1143.47C1582.91 1147.38 1580.01 1151.5 1575.85 1151.5H1197.15C1192.99 1151.5 1190.09 1147.38 1191.5 1143.47L1380.85 616.707Z" fill="#CA6702"/>
<path d="M43.8537 777.707C45.7567 772.414 53.2433 772.414 55.1463 777.707L244.5 1304.47C245.906 1308.38 243.009 1312.5 238.854 1312.5H-139.854C-144.009 1312.5 -146.906 1308.38 -145.5 1304.47L43.8537 777.707Z" fill="#EE9B00"/>
<path d="M616.854 711.707C618.757 706.414 626.243 706.414 628.146 711.707L817.5 1238.47C818.906 1242.38 816.009 1246.5 811.854 1246.5H433.146C428.991 1246.5 426.094 1242.38 427.5 1238.47L616.854 711.707Z" fill="#EE9B00"/>
<path d="M740.854 630.707C742.757 625.414 750.243 625.414 752.146 630.707L941.5 1157.47C942.906 1161.38 940.009 1165.5 935.854 1165.5H557.146C552.991 1165.5 550.094 1161.38 551.5 1157.47L740.854 630.707Z" fill="#EE9B00"/>
<path d="M942.854 777.707C944.757 772.414 952.243 772.414 954.146 777.707L1143.5 1304.47C1144.91 1308.38 1142.01 1312.5 1137.85 1312.5H759.146C754.991 1312.5 752.094 1308.38 753.5 1304.47L942.854 777.707Z" fill="#EE9B00"/>
<path d="M1094.85 657.707C1096.76 652.414 1104.24 652.414 1106.15 657.707L1295.5 1184.47C1296.91 1188.38 1294.01 1192.5 1289.85 1192.5H911.146C906.991 1192.5 904.094 1188.38 905.5 1184.47L1094.85 657.707Z" fill="#EE9B00"/>
<path d="M1167.85 737.707C1169.76 732.414 1177.24 732.414 1179.15 737.707L1368.5 1264.47C1369.91 1268.38 1367.01 1272.5 1362.85 1272.5H984.146C979.991 1272.5 977.094 1268.38 978.5 1264.47L1167.85 737.707Z" fill="#EE9B00"/>
<path d="M1286.75 651.398C1288.45 645.673 1296.55 645.673 1298.25 651.398L1453.46 1174.79C1454.6 1178.64 1451.72 1182.5 1447.71 1182.5H1137.29C1133.28 1182.5 1130.4 1178.64 1131.54 1174.79L1286.75 651.398Z" fill="#EE9B00"/>
<path d="M1413.85 830.707C1415.76 825.414 1423.24 825.414 1425.15 830.707L1614.5 1357.47C1615.91 1361.38 1613.01 1365.5 1608.85 1365.5H1230.15C1225.99 1365.5 1223.09 1361.38 1224.5 1357.47L1413.85 830.707Z" fill="#EE9B00"/>
<path d="M542.254 741.124C543.966 735.426 552.034 735.426 553.746 741.124L711.089 1264.77C712.246 1268.62 709.363 1272.5 705.343 1272.5H390.657C386.637 1272.5 383.754 1268.62 384.911 1264.77L542.254 741.124Z" fill="#EE9B00"/>
<path d="M387.714 653.077C389.329 647.195 397.671 647.195 399.286 653.077L542.538 1174.91C543.587 1178.73 540.713 1182.5 536.752 1182.5H250.248C246.287 1182.5 243.413 1178.73 244.462 1174.91L387.714 653.077Z" fill="#EE9B00"/>
<path d="M188.854 692.707C190.757 687.414 198.243 687.414 200.146 692.707L389.5 1219.47C390.906 1223.38 388.009 1227.5 383.854 1227.5H5.14589C0.991466 1227.5 -1.90575 1223.38 -0.500411 1219.47L188.854 692.707Z" fill="#EE9B00"/>
<path d="M249.384 753.937C251.333 748.753 258.667 748.753 260.616 753.937L458.93 1281.39C460.405 1285.31 457.506 1289.5 453.314 1289.5H56.6859C52.4945 1289.5 49.5947 1285.31 51.0698 1281.39L249.384 753.937Z" fill="#EE9B00"/>
</g>
<defs>
<clipPath id="clip0_602_16">
<rect width="1440" height="1024" fill="white"/>
</clipPath>
</defs>
</svg>
